<svg xmlns="http://www.w3.org/2000/svg" width="252" height="157" fill="none">
  <path fill="#000" fill-rule="evenodd" d="M150.78.177a1.32 1.32 0 0 1 1.321 0l9.237 5.336 8.024-4.635a1.32 1.32 0 0 1 1.321 0l30.741 17.76 8.02-4.633a1.322 1.322 0 0 1 1.322 0l16.093 9.299c.409.236.66.672.66 1.145v9.266l21.786 12.586c.409.236.661.672.661 1.145v9.271l.829.48c.409.235.661.672.661 1.144v10.14c0 .472-.252.908-.661 1.145l-13.738 7.937a1.32 1.32 0 0 1-1.321 0l-10.173-5.88a1.322 1.322 0 0 1-.661-1.144v-10.14c0-.472.252-.908.661-1.144l2.98-1.722-20.369-11.768a1.322 1.322 0 0 1-.661-1.145V35.35l-6.089-3.518-8.023 4.636a1.32 1.32 0 0 1-1.321 0l-30.464-17.601-.426.245-1.322-2.289.426-.246V9.49l-11.755 6.792a1.32 1.32 0 0 1-1.321 0l-10.175-5.878.4-.693h-1.06v-.452c0-.473.252-.909.661-1.145L150.78.177Zm-10.434 9.08 7.533 4.353 11.094-6.41-7.533-4.352-11.094 6.41Zm22.59.232v7.087l28.484 16.456v-7.087L162.936 9.49Zm31.126 16.456v7.087l6.041-3.49v-7.087l-6.041 3.49Zm8.683-3.49v7.087l5.998 3.465 6.134-3.543-12.132-7.009Zm17.416 7.009 4.716 2.725v-5.45l-4.716 2.725Zm3.395-5.015-13.451-7.773-6.039 3.49 13.453 7.771 6.037-3.488Zm-6.037 6.541-6.043 3.491 28.484 16.456 6.042-3.491-28.483-16.455Zm29.804 18.745-4.721 2.729 4.721 2.727v-5.456Zm.169 8.606-7.532-4.35-11.095 6.409 7.532 4.352 11.095-6.41Zm-12.416 8.7-7.532-4.352v7.087l7.532 4.352V67.04Zm2.642 7.087 11.096-6.41V60.63l-11.096 6.41v7.087Zm-27.563-37.252v6.981l21.031 12.15 6.041-3.491-27.072-15.64Zm-11.373-16.71L170.023 3.548l-6.043 3.49 28.761 16.617 6.041-3.49ZM15.055 78.427a1.32 1.32 0 0 1 1.321 0l10.174 5.88c.408.235.66.672.66 1.144v10.25c0 .472-.252.908-.66 1.144l-2.886 1.667 20.275 11.713c.408.236.66.672.66 1.145v9.272l6.089 3.517 8.023-4.635a1.316 1.316 0 0 1 1.32 0l30.466 17.601 13.076-7.556a1.32 1.32 0 0 1 1.321 0l10.175 5.879c.409.236.66.673.66 1.145v10.249c0 .472-.251.909-.66 1.145l-13.737 7.936a1.32 1.32 0 0 1-1.321 0l-9.237-5.336-8.024 4.635a1.32 1.32 0 0 1-1.32 0l-30.742-17.761-8.02 4.634a1.321 1.321 0 0 1-1.321 0l-16.094-9.299a1.321 1.321 0 0 1-.66-1.145v-9.266L2.807 109.8a1.321 1.321 0 0 1-.66-1.145v-9.271l-.83-.48a1.322 1.322 0 0 1-.66-1.144V87.51c0-.472.251-.908.66-1.144l13.738-7.938ZM4.789 100.697v7.196l20.935 12.094 6.227-3.597L4.79 100.696Zm29.804 14.166L6.11 98.406l6.042-3.49 28.484 16.455-6.043 3.491Zm7.364-1.201-4.721 2.728 4.721 2.727v-5.455ZM14.795 93.389l6.227 3.598 3.546-2.049v-7.196l-9.773 5.647Zm8.452-7.937-11.095 6.41L4.62 87.51l11.095-6.41 7.532 4.352ZM3.3 89.8v7.177L9.51 93.39 3.3 89.8Zm31.294 28.115-6.037 3.488 13.451 7.772 6.039-3.489-13.453-7.771Zm14.774 10.061-6.039 3.489v7.196l6.039-3.489v-7.196Zm2.642 7.196 28.76 16.617v-7.197l-28.76-16.616v7.196Zm1.321-9.486 28.76 16.617 6.042-3.491-28.76-16.616-6.042 3.49Zm35.949 15.516-5.868 3.39v7.197l5.868-3.39v-7.197Zm2.642 6.995 7.43 4.292v-7.196l-7.43-4.292v7.196Zm10.072-2.904v7.196l11.094-6.409v-7.196l-11.094 6.409Zm9.773-8.699-11.094 6.409-7.533-4.351 11.094-6.41 7.533 4.352Zm-71.08 2.067-13.45-7.772v-7.196l13.45 7.772v7.196Z" clip-rule="evenodd"/>
  <path fill="#F9703E" d="M88.99 66.573 32.825 33.95v41.763l56.165 32.624V66.573ZM78.77 20.945l.001 23.246 12.78 7.297 20.133-11.617L78.77 20.945Z"/>
  <path fill="#000" d="M162.656 69.319v41.622l34.876-20.13V49.25l-34.876 20.07ZM88.99 66.719v41.622l34.876-20.13L123.258 47 88.99 66.719ZM136.054 53.771V95.75l13.286-7.641-.001-26.483 21.652-12.508V33.835L136.054 53.77ZM125.655 31.8l34.874-20.15v12.84l-23.763 13.73-11.111-6.42ZM58.647 32.478 78.77 20.945l.001 23.246-20.124-11.713ZM184.215 41.475l13.969-8.07v16.222l-13.969-8.152ZM100.672 144.53v10.028l13.966-7.854-.23-10.11-13.736 7.936ZM82.09 143.829v10.249l8.51-4.916v-10.249l-8.51 4.916ZM42.007 130.702l8.681-5.016v10.25l-8.68 5.015v-10.249ZM34.81 116.263l8.468-4.892v9.81l-8.468-4.918ZM12.446 93.39l13.443-7.938v10.25l-4.778 2.863-8.665-5.176ZM236.397 66.278v10.14l13.738-7.937-.287-9.973-13.451 7.77ZM240.192 52.329l8.452-4.883v10.139l-8.452-5.256ZM193.09 25.182l8.079-4.87.255 9.993-4.166 2.407-4.441-2.407.273-5.123ZM217.519 29.464l8.465-4.891.214 10.015-8.679-5.124ZM157.479 9.71l3.836-2.336.185 4.779-4.021-2.443Z"/>
  <path fill="#F9703E" d="m149.339 61.625 34.876-20.15 13.317 7.694-34.876 20.15-13.317-7.694ZM136.054 53.771l34.937-19.937 13.224 7.641 13.969-8.07-26.542-15.335-34.876 20.15-11.111-6.42-13.971 8.07 24.37 13.901Z"/>
  <path fill="#F9703E" d="m160.529 11.65-13.316-7.693-34.533 20.242 12.975 7.601 34.874-20.15Z"/>
  <path fill="#000" fill-rule="evenodd" d="M146.545 2.816a1.32 1.32 0 0 1 1.328-.004l13.317 7.694c.409.236.66.672.66 1.144v10.594l9.127-5.317c.41-.238.915-.239 1.326-.002l26.541 15.335c.409.236.661.673.661 1.145v41.588c0 .468-.248.902-.652 1.14V90.81c0 .473-.252.91-.661 1.145l-34.876 20.13a1.32 1.32 0 0 1-1.323-.001l-13.317-7.73a1.321 1.321 0 0 1-.659-1.144l.002-12.813-11.244 6.496a1.32 1.32 0 0 1-1.315.003l-12.198-6.961-33.613 19.387a1.32 1.32 0 0 1-1.32 0L32.164 76.858a1.322 1.322 0 0 1-.66-1.145V33.957c0-.472.251-.908.66-1.144L66.47 12.984a1.32 1.32 0 0 1 1.322 0l10.978 6.344 13.537-7.823a1.32 1.32 0 0 1 1.328.004l19.045 11.158 33.865-19.851Zm.673 2.67-33.87 19.853a1.32 1.32 0 0 1-1.335 0l-19.05-11.16L79.43 22a1.32 1.32 0 0 1-1.322 0l-10.978-6.343L34.146 34.72v40.23l54.844 31.701 33.608-19.385a1.32 1.32 0 0 1 1.314-.003l12.199 6.96 12.568-7.26a1.32 1.32 0 0 1 1.982 1.144l-.001 14.342 11.998 6.964 33.553-19.366V75.372c0-.469.248-.902.652-1.14V34.169l-25.218-14.57-10.451 6.088a1.32 1.32 0 0 1-1.986-1.142v-12.13l-11.99-6.928Z" clip-rule="evenodd"/>
  <path fill="#000" fill-rule="evenodd" d="M199.328 32.744c.364.632.148 1.44-.484 1.806l-13.969 8.07a1.32 1.32 0 0 1-1.321 0l-12.563-7.259-34.216 19.768a1.32 1.32 0 0 1-1.315.003l-12.198-6.96L89.649 67.56a1.32 1.32 0 0 1-1.32 0L32.164 35.093a1.322 1.322 0 0 1 1.321-2.29L88.99 64.889l33.608-19.385a1.32 1.32 0 0 1 1.314-.003l12.199 6.96 34.219-19.77a1.32 1.32 0 0 1 1.321 0l12.564 7.259 13.308-7.689a1.321 1.321 0 0 1 1.805.484Z" clip-rule="evenodd"/>
  <path fill="#000" fill-rule="evenodd" d="M183.554 40.33a1.32 1.32 0 0 1 1.321 0l13.318 7.695a1.32 1.32 0 0 1 0 2.29l-34.876 20.149a1.32 1.32 0 0 1-1.321 0l-13.318-7.694a1.322 1.322 0 0 1 0-2.29l34.876-20.15Zm.661 2.672-32.234 18.623 10.675 6.167L194.89 49.17l-10.675-6.167ZM161.673 10.99c.365.632.149 1.44-.483 1.806L114.256 39.9l9.664 5.603a1.322 1.322 0 0 1-1.324 2.288l-10.98-6.366-19.404 11.207a1.32 1.32 0 0 1-1.321 0l-32.904-19.01a1.322 1.322 0 0 1 0-2.29L78.109 19.71a1.32 1.32 0 0 1 1.323.001l32.187 18.662 48.25-27.866a1.32 1.32 0 0 1 1.804.484Zm-52.695 28.907L78.768 22.38 61.29 32.478 91.55 49.962l17.427-10.065Z" clip-rule="evenodd"/>
  <path fill="#000" fill-rule="evenodd" d="M111.538 23.534a1.321 1.321 0 0 1 1.807-.478l23.425 13.636 23.101-13.294a1.323 1.323 0 0 1 1.317 2.292l-23.763 13.675a1.32 1.32 0 0 1-1.323-.003l-24.086-14.02a1.322 1.322 0 0 1-.478-1.808ZM123.258 45.326c.73 0 1.321.592 1.321 1.322v41.764a1.321 1.321 0 1 1-2.642 0V46.648c0-.73.591-1.322 1.321-1.322ZM136.115 52.662c.729 0 1.321.592 1.321 1.322v41.765a1.322 1.322 0 1 1-2.642 0V53.984c0-.73.591-1.322 1.321-1.322ZM88.99 65.093c.73 0 1.32.591 1.32 1.321v41.764a1.322 1.322 0 1 1-2.642 0V66.414c0-.73.592-1.322 1.322-1.322ZM78.77 19.623c.73 0 1.32.592 1.32 1.322V44.06a1.322 1.322 0 1 1-2.641 0V20.945c0-.73.591-1.322 1.32-1.322ZM149.339 60.303c.729 0 1.321.592 1.321 1.322v26.483a1.322 1.322 0 1 1-2.643 0V61.625c0-.73.592-1.322 1.322-1.322ZM162.656 67.997c.73 0 1.321.592 1.321 1.322v41.622a1.321 1.321 0 1 1-2.642 0V69.319c0-.73.592-1.322 1.321-1.322ZM170.991 32.513c.729 0 1.321.591 1.321 1.322v15.282a1.322 1.322 0 1 1-2.642 0V33.835c0-.73.591-1.322 1.321-1.322ZM197.532 48.508c.365 0 .661.296.661.661v26.593a.661.661 0 0 1-1.321 0V49.17a.66.66 0 0 1 .66-.66Z" clip-rule="evenodd"/>
</svg>