<svg width="80" height="80" viewBox="0 0 80 80" fill="none" xmlns="http://www.w3.org/2000/svg">
<g clip-path="url(#clip0_31_152)">
<path fill-rule="evenodd" clip-rule="evenodd" d="M0 0L36.8 36.8H38.4649L40.6634 34.6173C36.5123 31.717 38.08 28.672 38.08 28.672C39.04 26.464 38.56 25.152 38.56 25.152C38.144 23.04 39.488 24.416 39.488 24.416C40.736 25.888 40.16 27.936 40.16 27.936C39.4359 30.8047 41.2086 32.219 42.4821 32.8117L42.784 32.512C43.808 31.744 44.768 31.488 45.504 31.552C42.816 28.16 40.8 23.808 46.016 18.56C47.52 17.088 49.28 16.384 51.104 16.32C51.296 15.808 52.224 13.952 54.848 12.832C54.848 12.832 56.352 13.6 57.216 17.984C58.592 18.752 59.904 19.776 61.088 20.928C62.24 22.08 63.264 23.424 64.032 24.832C68.416 25.664 69.216 27.168 69.216 27.168C68.064 29.792 66.208 30.72 65.728 30.912C65.632 32.768 64.96 34.496 63.456 36C58.208 41.248 53.856 39.2 50.464 36.512C50.528 37.408 50.144 38.688 48.864 39.968L45.12 43.68C44.9488 43.8512 44.9684 44.213 45.0483 44.5588L45.44 45.44L80 80V0H0Z" fill="#F35627"/>
</g>
<defs>
<clipPath id="clip0_31_152">
<rect width="80" height="80" fill="white"/>
</clipPath>
</defs>
</svg>
